{
  "scale": 96,
  "tracks": [
    {
      "events": [
        {
          "time": 0,
          "status": 255,
          "type": "MIDI::MetaEvent"
        },
        {
          "time": 0,
          "status": 255,
          "type": "MIDI::TimeSig"
        },
        {
          "time": 0,
          "status": 255,
          "type": "MIDI::TimeSig"
        },
        {
          "time": 0,
          "status": 144,
          "type": "MIDI::NoteOn",
          "channel": 0,
          "note": 48,
          "velocity": 101
        },
        {
          "time": 27,
          "status": 128,
          "type": "MIDI::NoteOff",
          "channel": 0,
          "note": 48,
          "velocity": 0
        },
        {
          "time": 48,
          "status": 144,
          "type": "MIDI::NoteOn",
          "channel": 0,
          "note": 48,
          "velocity": 93
        },
        {
          "time": 60,
          "status": 128,
          "type": "MIDI::NoteOff",
          "channel": 0,
          "note": 48,
          "velocity": 0
        },
        {
          "time": 72,
          "status": 144,
          "type": "MIDI::NoteOn",
          "channel": 0,
          "note": 48,
          "velocity": 100
        },
        {
          "time": 84,
          "status": 128,
          "type": "MIDI::NoteOff",
          "channel": 0,
          "note": 48,
          "velocity": 64
        },
        {
          "time": 96,
          "status": 144,
          "type": "MIDI::NoteOn",
          "channel": 0,
          "note": 48,
          "velocity": 86
        },
        {
          "time": 123,
          "status": 128,
          "type": "MIDI::NoteOff",
          "channel": 0,
          "note": 48,
          "velocity": 0
        },
        {
          "time": 144,
          "status": 144,
          "type": "MIDI::NoteOn",
          "channel": 0,
          "note": 48,
          "velocity": 98
        },
        {
          "time": 173,
          "status": 128,
          "type": "MIDI::NoteOff",
          "channel": 0,
          "note": 48,
          "velocity": 0
        },
        {
          "time": 192,
          "status": 144,
          "type": "MIDI::NoteOn",
          "channel": 0,
          "note": 48,
          "velocity": 97
        },
        {
          "time": 211,
          "status": 128,
          "type": "MIDI::NoteOff",
          "channel": 0,
          "note": 48,
          "velocity": 0
        },
        {
          "time": 240,
          "status": 144,
          "type": "MIDI::NoteOn",
          "channel": 0,
          "note": 48,
          "velocity": 96
        },
        {
          "time": 265,
          "status": 128,
          "type": "MIDI::NoteOff",
          "channel": 0,
          "note": 48,
          "velocity": 0
        },
        {
          "time": 288,
          "status": 144,
          "type": "MIDI::NoteOn",
          "channel": 0,
          "note": 48,
          "velocity": 101
        },
        {
          "time": 315,
          "status": 128,
          "type": "MIDI::NoteOff",
          "channel": 0,
          "note": 48,
          "velocity": 0
        },
        {
          "time": 336,
          "status": 144,
          "type": "MIDI::NoteOn",
          "channel": 0,
          "note": 48,
          "velocity": 87
        },
        {
          "time": 363,
          "status": 128,
          "type": "MIDI::NoteOff",
          "channel": 0,
          "note": 48,
          "velocity": 0
        },
        {
          "time": 384,
          "status": 144,
          "type": "MIDI::NoteOn",
          "channel": 0,
          "note": 48,
          "velocity": 97
        },
        {
          "time": 417,
          "status": 128,
          "type": "MIDI::NoteOff",
          "channel": 0,
          "note": 48,
          "velocity": 0
        },
        {
          "time": 528,
          "status": 144,
          "type": "MIDI::NoteOn",
          "channel": 0,
          "note": 48,
          "velocity": 101
        },
        {
          "time": 553,
          "status": 128,
          "type": "MIDI::NoteOff",
          "channel": 0,
          "note": 48,
          "velocity": 0
        },
        {
          "time": 576,
          "status": 144,
          "type": "MIDI::NoteOn",
          "channel": 0,
          "note": 48,
          "velocity": 85
        },
        {
          "time": 591,
          "status": 128,
          "type": "MIDI::NoteOff",
          "channel": 0,
          "note": 48,
          "velocity": 0
        },
        {
          "time": 624,
          "status": 144,
          "type": "MIDI::NoteOn",
          "channel": 0,
          "note": 48,
          "velocity": 100
        },
        {
          "time": 646,
          "status": 128,
          "type": "MIDI::NoteOff",
          "channel": 0,
          "note": 48,
          "velocity": 0
        },
        {
          "time": 672,
          "status": 144,
          "type": "MIDI::NoteOn",
          "channel": 0,
          "note": 48,
          "velocity": 117
        },
        {
          "time": 702,
          "status": 128,
          "type": "MIDI::NoteOff",
          "channel": 0,
          "note": 48,
          "velocity": 0
        },
        {
          "time": 768,
          "status": 144,
          "type": "MIDI::NoteOn",
          "channel": 0,
          "note": 48,
          "velocity": 67
        },
        {
          "time": 912,
          "status": 128,
          "type": "MIDI::NoteOff",
          "channel": 0,
          "note": 48,
          "velocity": 0
        },
        {
          "time": 960,
          "status": 144,
          "type": "MIDI::NoteOn",
          "channel": 0,
          "note": 48,
          "velocity": 64
        },
        {
          "time": 1151,
          "status": 128,
          "type": "MIDI::NoteOff",
          "channel": 0,
          "note": 48,
          "velocity": 0
        },
        {
          "time": 1152,
          "status": 144,
          "type": "MIDI::NoteOn",
          "channel": 0,
          "note": 48,
          "velocity": 54
        },
        {
          "time": 1342,
          "status": 128,
          "type": "MIDI::NoteOff",
          "channel": 0,
          "note": 48,
          "velocity": 0
        },
        {
          "time": 1536,
          "status": 144,
          "type": "MIDI::NoteOn",
          "channel": 0,
          "note": 48,
          "velocity": 49
        },
        {
          "time": 2304,
          "status": 128,
          "type": "MIDI::NoteOff",
          "channel": 0,
          "note": 48,
          "velocity": 0
        },
        {
          "time": 2304,
          "status": 144,
          "type": "MIDI::NoteOn",
          "channel": 0,
          "note": 48,
          "velocity": 59
        },
        {
          "time": 2448,
          "status": 128,
          "type": "MIDI::NoteOff",
          "channel": 0,
          "note": 48,
          "velocity": 0
        },
        {
          "time": 2496,
          "status": 144,
          "type": "MIDI::NoteOn",
          "channel": 0,
          "note": 48,
          "velocity": 92
        },
        {
          "time": 2688,
          "status": 128,
          "type": "MIDI::NoteOff",
          "channel": 0,
          "note": 48,
          "velocity": 0
        },
        {
          "time": 2784,
          "status": 144,
          "type": "MIDI::NoteOn",
          "channel": 0,
          "note": 48,
          "velocity": 99
        },
        {
          "time": 2832,
          "status": 128,
          "type": "MIDI::NoteOff",
          "channel": 0,
          "note": 48,
          "velocity": 64
        },
        {
          "time": 2832,
          "status": 144,
          "type": "MIDI::NoteOn",
          "channel": 0,
          "note": 48,
          "velocity": 99
        },
        {
          "time": 2880,
          "status": 128,
          "type": "MIDI::NoteOff",
          "channel": 0,
          "note": 48,
          "velocity": 64
        },
        {
          "time": 2880,
          "status": 144,
          "type": "MIDI::NoteOn",
          "channel": 0,
          "note": 48,
          "velocity": 72
        },
        {
          "time": 2976,
          "status": 128,
          "type": "MIDI::NoteOff",
          "channel": 0,
          "note": 48,
          "velocity": 0
        },
        {
          "time": 3072,
          "status": 144,
          "type": "MIDI::NoteOn",
          "channel": 0,
          "note": 48,
          "velocity": 112
        },
        {
          "time": 3452,
          "status": 128,
          "type": "MIDI::NoteOff",
          "channel": 0,
          "note": 48,
          "velocity": 0
        },
        {
          "time": 3456,
          "status": 144,
          "type": "MIDI::NoteOn",
          "channel": 0,
          "note": 48,
          "velocity": 99
        },
        {
          "time": 3504,
          "status": 128,
          "type": "MIDI::NoteOff",
          "channel": 0,
          "note": 48,
          "velocity": 64
        },
        {
          "time": 3552,
          "status": 144,
          "type": "MIDI::NoteOn",
          "channel": 0,
          "note": 48,
          "velocity": 99
        },
        {
          "time": 3600,
          "status": 128,
          "type": "MIDI::NoteOff",
          "channel": 0,
          "note": 48,
          "velocity": 64
        },
        {
          "time": 3648,
          "status": 144,
          "type": "MIDI::NoteOn",
          "channel": 0,
          "note": 48,
          "velocity": 99
        },
        {
          "time": 3696,
          "status": 128,
          "type": "MIDI::NoteOff",
          "channel": 0,
          "note": 48,
          "velocity": 64
        },
        {
          "time": 3744,
          "status": 144,
          "type": "MIDI::NoteOn",
          "channel": 0,
          "note": 48,
          "velocity": 99
        },
        {
          "time": 3792,
          "status": 128,
          "type": "MIDI::NoteOff",
          "channel": 0,
          "note": 48,
          "velocity": 64
        },
        {
          "time": 3840,
          "status": 144,
          "type": "MIDI::NoteOn",
          "channel": 0,
          "note": 48,
          "velocity": 67
        },
        {
          "time": 3984,
          "status": 128,
          "type": "MIDI::NoteOff",
          "channel": 0,
          "note": 48,
          "velocity": 0
        },
        {
          "time": 4032,
          "status": 144,
          "type": "MIDI::NoteOn",
          "channel": 0,
          "note": 48,
          "velocity": 64
        },
        {
          "time": 4223,
          "status": 128,
          "type": "MIDI::NoteOff",
          "channel": 0,
          "note": 48,
          "velocity": 0
        },
        {
          "time": 4224,
          "status": 144,
          "type": "MIDI::NoteOn",
          "channel": 0,
          "note": 48,
          "velocity": 54
        },
        {
          "time": 4416,
          "status": 128,
          "type": "MIDI::NoteOff",
          "channel": 0,
          "note": 48,
          "velocity": 0
        },
        {
          "time": 4608,
          "status": 144,
          "type": "MIDI::NoteOn",
          "channel": 0,
          "note": 48,
          "velocity": 49
        },
        {
          "time": 5376,
          "status": 128,
          "type": "MIDI::NoteOff",
          "channel": 0,
          "note": 48,
          "velocity": 0
        },
        {
          "time": 5376,
          "status": 144,
          "type": "MIDI::NoteOn",
          "channel": 0,
          "note": 48,
          "velocity": 59
        },
        {
          "time": 5520,
          "status": 128,
          "type": "MIDI::NoteOff",
          "channel": 0,
          "note": 48,
          "velocity": 0
        },
        {
          "time": 5568,
          "status": 144,
          "type": "MIDI::NoteOn",
          "channel": 0,
          "note": 48,
          "velocity": 92
        },
        {
          "time": 5760,
          "status": 128,
          "type": "MIDI::NoteOff",
          "channel": 0,
          "note": 48,
          "velocity": 0
        },
        {
          "time": 5760,
          "status": 144,
          "type": "MIDI::NoteOn",
          "channel": 0,
          "note": 48,
          "velocity": 72
        },
        {
          "time": 5856,
          "status": 128,
          "type": "MIDI::NoteOff",
          "channel": 0,
          "note": 48,
          "velocity": 0
        },
        {
          "time": 5856,
          "status": 144,
          "type": "MIDI::NoteOn",
          "channel": 0,
          "note": 48,
          "velocity": 99
        },
        {
          "time": 5904,
          "status": 128,
          "type": "MIDI::NoteOff",
          "channel": 0,
          "note": 48,
          "velocity": 64
        },
        {
          "time": 5904,
          "status": 144,
          "type": "MIDI::NoteOn",
          "channel": 0,
          "note": 48,
          "velocity": 99
        },
        {
          "time": 5952,
          "status": 128,
          "type": "MIDI::NoteOff",
          "channel": 0,
          "note": 48,
          "velocity": 64
        },
        {
          "time": 6144,
          "status": 144,
          "type": "MIDI::NoteOn",
          "channel": 0,
          "note": 48,
          "velocity": 112
        },
        {
          "time": 6524,
          "status": 128,
          "type": "MIDI::NoteOff",
          "channel": 0,
          "note": 48,
          "velocity": 0
        },
        {
          "time": 6528,
          "status": 144,
          "type": "MIDI::NoteOn",
          "channel": 0,
          "note": 48,
          "velocity": 99
        },
        {
          "time": 6908,
          "status": 128,
          "type": "MIDI::NoteOff",
          "channel": 0,
          "note": 48,
          "velocity": 64
        },
        {
          "time": 6912,
          "status": 144,
          "type": "MIDI::NoteOn",
          "channel": 0,
          "note": 48,
          "velocity": 100
        },
        {
          "time": 6960,
          "status": 128,
          "type": "MIDI::NoteOff",
          "channel": 0,
          "note": 48,
          "velocity": 64
        },
        {
          "time": 6960,
          "status": 144,
          "type": "MIDI::NoteOn",
          "channel": 0,
          "note": 48,
          "velocity": 100
        },
        {
          "time": 7008,
          "status": 128,
          "type": "MIDI::NoteOff",
          "channel": 0,
          "note": 48,
          "velocity": 64
        },
        {
          "time": 7008,
          "status": 144,
          "type": "MIDI::NoteOn",
          "channel": 0,
          "note": 48,
          "velocity": 100
        },
        {
          "time": 7056,
          "status": 128,
          "type": "MIDI::NoteOff",
          "channel": 0,
          "note": 48,
          "velocity": 64
        },
        {
          "time": 7104,
          "status": 144,
          "type": "MIDI::NoteOn",
          "channel": 0,
          "note": 48,
          "velocity": 100
        },
        {
          "time": 7152,
          "status": 128,
          "type": "MIDI::NoteOff",
          "channel": 0,
          "note": 48,
          "velocity": 64
        },
        {
          "time": 7152,
          "status": 144,
          "type": "MIDI::NoteOn",
          "channel": 0,
          "note": 48,
          "velocity": 100
        },
        {
          "time": 7200,
          "status": 128,
          "type": "MIDI::NoteOff",
          "channel": 0,
          "note": 48,
          "velocity": 64
        },
        {
          "time": 7200,
          "status": 144,
          "type": "MIDI::NoteOn",
          "channel": 0,
          "note": 48,
          "velocity": 100
        },
        {
          "time": 7248,
          "status": 128,
          "type": "MIDI::NoteOff",
          "channel": 0,
          "note": 48,
          "velocity": 64
        },
        {
          "time": 7296,
          "status": 144,
          "type": "MIDI::NoteOn",
          "channel": 0,
          "note": 48,
          "velocity": 100
        },
        {
          "time": 7344,
          "status": 128,
          "type": "MIDI::NoteOff",
          "channel": 0,
          "note": 48,
          "velocity": 64
        },
        {
          "time": 7344,
          "status": 144,
          "type": "MIDI::NoteOn",
          "channel": 0,
          "note": 48,
          "velocity": 100
        },
        {
          "time": 7392,
          "status": 128,
          "type": "MIDI::NoteOff",
          "channel": 0,
          "note": 48,
          "velocity": 64
        },
        {
          "time": 7392,
          "status": 144,
          "type": "MIDI::NoteOn",
          "channel": 0,
          "note": 48,
          "velocity": 100
        },
        {
          "time": 7440,
          "status": 128,
          "type": "MIDI::NoteOff",
          "channel": 0,
          "note": 48,
          "velocity": 64
        },
        {
          "time": 7488,
          "status": 144,
          "type": "MIDI::NoteOn",
          "channel": 0,
          "note": 48,
          "velocity": 100
        },
        {
          "time": 7536,
          "status": 128,
          "type": "MIDI::NoteOff",
          "channel": 0,
          "note": 48,
          "velocity": 64
        },
        {
          "time": 7536,
          "status": 144,
          "type": "MIDI::NoteOn",
          "channel": 0,
          "note": 48,
          "velocity": 100
        },
        {
          "time": 7584,
          "status": 128,
          "type": "MIDI::NoteOff",
          "channel": 0,
          "note": 48,
          "velocity": 64
        },
        {
          "time": 7584,
          "status": 144,
          "type": "MIDI::NoteOn",
          "channel": 0,
          "note": 48,
          "velocity": 100
        },
        {
          "time": 7632,
          "status": 128,
          "type": "MIDI::NoteOff",
          "channel": 0,
          "note": 48,
          "velocity": 64
        },
        {
          "time": 7776,
          "status": 144,
          "type": "MIDI::NoteOn",
          "channel": 0,
          "note": 48,
          "velocity": 93
        },
        {
          "time": 7920,
          "status": 128,
          "type": "MIDI::NoteOff",
          "channel": 0,
          "note": 48,
          "velocity": 0
        },
        {
          "time": 7920,
          "status": 144,
          "type": "MIDI::NoteOn",
          "channel": 0,
          "note": 48,
          "velocity": 95
        },
        {
          "time": 8064,
          "status": 128,
          "type": "MIDI::NoteOff",
          "channel": 0,
          "note": 48,
          "velocity": 0
        },
        {
          "time": 8064,
          "status": 144,
          "type": "MIDI::NoteOn",
          "channel": 0,
          "note": 48,
          "velocity": 79
        },
        {
          "time": 8448,
          "status": 128,
          "type": "MIDI::NoteOff",
          "channel": 0,
          "note": 48,
          "velocity": 0
        },
        {
          "time": 8448,
          "status": 144,
          "type": "MIDI::NoteOn",
          "channel": 0,
          "note": 48,
          "velocity": 83
        },
        {
          "time": 8736,
          "status": 128,
          "type": "MIDI::NoteOff",
          "channel": 0,
          "note": 48,
          "velocity": 0
        },
        {
          "time": 8832,
          "status": 144,
          "type": "MIDI::NoteOn",
          "channel": 0,
          "note": 48,
          "velocity": 92
        },
        {
          "time": 9216,
          "status": 128,
          "type": "MIDI::NoteOff",
          "channel": 0,
          "note": 48,
          "velocity": 0
        },
        {
          "time": 9216,
          "status": 144,
          "type": "MIDI::NoteOn",
          "channel": 0,
          "note": 48,
          "velocity": 109
        },
        {
          "time": 9312,
          "status": 128,
          "type": "MIDI::NoteOff",
          "channel": 0,
          "note": 48,
          "velocity": 0
        },
        {
          "time": 9312,
          "status": 144,
          "type": "MIDI::NoteOn",
          "channel": 0,
          "note": 48,
          "velocity": 101
        },
        {
          "time": 9408,
          "status": 128,
          "type": "MIDI::NoteOff",
          "channel": 0,
          "note": 48,
          "velocity": 64
        },
        {
          "time": 9984,
          "status": 144,
          "type": "MIDI::NoteOn",
          "channel": 0,
          "note": 48,
          "velocity": 91
        },
        {
          "time": 10028,
          "status": 128,
          "type": "MIDI::NoteOff",
          "channel": 0,
          "note": 48,
          "velocity": 0
        },
        {
          "time": 10081,
          "status": 144,
          "type": "MIDI::NoteOn",
          "channel": 0,
          "note": 48,
          "velocity": 93
        },
        {
          "time": 10133,
          "status": 128,
          "type": "MIDI::NoteOff",
          "channel": 0,
          "note": 48,
          "velocity": 0
        },
        {
          "time": 10176,
          "status": 144,
          "type": "MIDI::NoteOn",
          "channel": 0,
          "note": 48,
          "velocity": 106
        },
        {
          "time": 10224,
          "status": 128,
          "type": "MIDI::NoteOff",
          "channel": 0,
          "note": 48,
          "velocity": 0
        },
        {
          "time": 10224,
          "status": 144,
          "type": "MIDI::NoteOn",
          "channel": 0,
          "note": 48,
          "velocity": 89
        },
        {
          "time": 10272,
          "status": 128,
          "type": "MIDI::NoteOff",
          "channel": 0,
          "note": 48,
          "velocity": 0
        },
        {
          "time": 10272,
          "status": 144,
          "type": "MIDI::NoteOn",
          "channel": 0,
          "note": 48,
          "velocity": 88
        },
        {
          "time": 10320,
          "status": 128,
          "type": "MIDI::NoteOff",
          "channel": 0,
          "note": 48,
          "velocity": 0
        },
        {
          "time": 10320,
          "status": 144,
          "type": "MIDI::NoteOn",
          "channel": 0,
          "note": 48,
          "velocity": 80
        },
        {
          "time": 10416,
          "status": 128,
          "type": "MIDI::NoteOff",
          "channel": 0,
          "note": 48,
          "velocity": 0
        },
        {
          "time": 10416,
          "status": 144,
          "type": "MIDI::NoteOn",
          "channel": 0,
          "note": 48,
          "velocity": 101
        },
        {
          "time": 10488,
          "status": 128,
          "type": "MIDI::NoteOff",
          "channel": 0,
          "note": 48,
          "velocity": 64
        },
        {
          "time": 10512,
          "status": 144,
          "type": "MIDI::NoteOn",
          "channel": 0,
          "note": 48,
          "velocity": 101
        },
        {
          "time": 10560,
          "status": 128,
          "type": "MIDI::NoteOff",
          "channel": 0,
          "note": 48,
          "velocity": 64
        },
        {
          "time": 10560,
          "status": 144,
          "type": "MIDI::NoteOn",
          "channel": 0,
          "note": 48,
          "velocity": 93
        },
        {
          "time": 10608,
          "status": 128,
          "type": "MIDI::NoteOff",
          "channel": 0,
          "note": 48,
          "velocity": 0
        },
        {
          "time": 10608,
          "status": 144,
          "type": "MIDI::NoteOn",
          "channel": 0,
          "note": 48,
          "velocity": 88
        },
        {
          "time": 10655,
          "status": 128,
          "type": "MIDI::NoteOff",
          "channel": 0,
          "note": 48,
          "velocity": 0
        },
        {
          "time": 10656,
          "status": 144,
          "type": "MIDI::NoteOn",
          "channel": 0,
          "note": 48,
          "velocity": 84
        },
        {
          "time": 10752,
          "status": 128,
          "type": "MIDI::NoteOff",
          "channel": 0,
          "note": 48,
          "velocity": 0
        },
        {
          "time": 10848,
          "status": 144,
          "type": "MIDI::NoteOn",
          "channel": 0,
          "note": 48,
          "velocity": 100
        },
        {
          "time": 10944,
          "status": 128,
          "type": "MIDI::NoteOff",
          "channel": 0,
          "note": 48,
          "velocity": 64
        },
        {
          "time": 11040,
          "status": 144,
          "type": "MIDI::NoteOn",
          "channel": 0,
          "note": 48,
          "velocity": 100
        },
        {
          "time": 11136,
          "status": 128,
          "type": "MIDI::NoteOff",
          "channel": 0,
          "note": 48,
          "velocity": 64
        },
        {
          "time": 11232,
          "status": 144,
          "type": "MIDI::NoteOn",
          "channel": 0,
          "note": 48,
          "velocity": 100
        },
        {
          "time": 11328,
          "status": 128,
          "type": "MIDI::NoteOff",
          "channel": 0,
          "note": 48,
          "velocity": 64
        },
        {
          "time": 11520,
          "status": 144,
          "type": "MIDI::NoteOn",
          "channel": 0,
          "note": 48,
          "velocity": 96
        },
        {
          "time": 11568,
          "status": 128,
          "type": "MIDI::NoteOff",
          "channel": 0,
          "note": 48,
          "velocity": 0
        },
        {
          "time": 11617,
          "status": 144,
          "type": "MIDI::NoteOn",
          "channel": 0,
          "note": 48,
          "velocity": 93
        },
        {
          "time": 11760,
          "status": 128,
          "type": "MIDI::NoteOff",
          "channel": 0,
          "note": 48,
          "velocity": 0
        },
        {
          "time": 11760,
          "status": 144,
          "type": "MIDI::NoteOn",
          "channel": 0,
          "note": 48,
          "velocity": 101
        },
        {
          "time": 11856,
          "status": 128,
          "type": "MIDI::NoteOff",
          "channel": 0,
          "note": 48,
          "velocity": 64
        },
        {
          "time": 11856,
          "status": 144,
          "type": "MIDI::NoteOn",
          "channel": 0,
          "note": 48,
          "velocity": 101
        },
        {
          "time": 11952,
          "status": 128,
          "type": "MIDI::NoteOff",
          "channel": 0,
          "note": 48,
          "velocity": 64
        },
        {
          "time": 11952,
          "status": 144,
          "type": "MIDI::NoteOn",
          "channel": 0,
          "note": 48,
          "velocity": 101
        },
        {
          "time": 12096,
          "status": 128,
          "type": "MIDI::NoteOff",
          "channel": 0,
          "note": 48,
          "velocity": 64
        },
        {
          "time": 12096,
          "status": 144,
          "type": "MIDI::NoteOn",
          "channel": 0,
          "note": 48,
          "velocity": 93
        },
        {
          "time": 12136,
          "status": 128,
          "type": "MIDI::NoteOff",
          "channel": 0,
          "note": 48,
          "velocity": 0
        },
        {
          "time": 12144,
          "status": 144,
          "type": "MIDI::NoteOn",
          "channel": 0,
          "note": 48,
          "velocity": 88
        },
        {
          "time": 12191,
          "status": 128,
          "type": "MIDI::NoteOff",
          "channel": 0,
          "note": 48,
          "velocity": 0
        },
        {
          "time": 12192,
          "status": 144,
          "type": "MIDI::NoteOn",
          "channel": 0,
          "note": 48,
          "velocity": 100
        },
        {
          "time": 12240,
          "status": 128,
          "type": "MIDI::NoteOff",
          "channel": 0,
          "note": 48,
          "velocity": 64
        },
        {
          "time": 12240,
          "status": 144,
          "type": "MIDI::NoteOn",
          "channel": 0,
          "note": 48,
          "velocity": 100
        },
        {
          "time": 12288,
          "status": 128,
          "type": "MIDI::NoteOff",
          "channel": 0,
          "note": 48,
          "velocity": 64
        },
        {
          "time": 12288,
          "status": 144,
          "type": "MIDI::NoteOn",
          "channel": 0,
          "note": 48,
          "velocity": 96
        },
        {
          "time": 12336,
          "status": 128,
          "type": "MIDI::NoteOff",
          "channel": 0,
          "note": 48,
          "velocity": 64
        },
        {
          "time": 12336,
          "status": 144,
          "type": "MIDI::NoteOn",
          "channel": 0,
          "note": 48,
          "velocity": 100
        },
        {
          "time": 12384,
          "status": 128,
          "type": "MIDI::NoteOff",
          "channel": 0,
          "note": 48,
          "velocity": 64
        },
        {
          "time": 12432,
          "status": 144,
          "type": "MIDI::NoteOn",
          "channel": 0,
          "note": 48,
          "velocity": 100
        },
        {
          "time": 12480,
          "status": 128,
          "type": "MIDI::NoteOff",
          "channel": 0,
          "note": 48,
          "velocity": 64
        },
        {
          "time": 12480,
          "status": 144,
          "type": "MIDI::NoteOn",
          "channel": 0,
          "note": 48,
          "velocity": 100
        },
        {
          "time": 12540,
          "status": 128,
          "type": "MIDI::NoteOff",
          "channel": 0,
          "note": 48,
          "velocity": 64
        },
        {
          "time": 13056,
          "status": 144,
          "type": "MIDI::NoteOn",
          "channel": 0,
          "note": 48,
          "velocity": 93
        },
        {
          "time": 13141,
          "status": 128,
          "type": "MIDI::NoteOff",
          "channel": 0,
          "note": 48,
          "velocity": 0
        },
        {
          "time": 13152,
          "status": 144,
          "type": "MIDI::NoteOn",
          "channel": 0,
          "note": 48,
          "velocity": 80
        },
        {
          "time": 13243,
          "status": 128,
          "type": "MIDI::NoteOff",
          "channel": 0,
          "note": 48,
          "velocity": 0
        },
        {
          "time": 13248,
          "status": 144,
          "type": "MIDI::NoteOn",
          "channel": 0,
          "note": 48,
          "velocity": 80
        },
        {
          "time": 13341,
          "status": 128,
          "type": "MIDI::NoteOff",
          "channel": 0,
          "note": 48,
          "velocity": 0
        },
        {
          "time": 13344,
          "status": 144,
          "type": "MIDI::NoteOn",
          "channel": 0,
          "note": 48,
          "velocity": 80
        },
        {
          "time": 13438,
          "status": 128,
          "type": "MIDI::NoteOff",
          "channel": 0,
          "note": 48,
          "velocity": 0
        },
        {
          "time": 13440,
          "status": 144,
          "type": "MIDI::NoteOn",
          "channel": 0,
          "note": 48,
          "velocity": 87
        },
        {
          "time": 13543,
          "status": 128,
          "type": "MIDI::NoteOff",
          "channel": 0,
          "note": 48,
          "velocity": 0
        },
        {
          "time": 13584,
          "status": 144,
          "type": "MIDI::NoteOn",
          "channel": 0,
          "note": 48,
          "velocity": 83
        },
        {
          "time": 13781,
          "status": 128,
          "type": "MIDI::NoteOff",
          "channel": 0,
          "note": 48,
          "velocity": 0
        },
        {
          "time": 13872,
          "status": 144,
          "type": "MIDI::NoteOn",
          "channel": 0,
          "note": 48,
          "velocity": 95
        },
        {
          "time": 13920,
          "status": 128,
          "type": "MIDI::NoteOff",
          "channel": 0,
          "note": 48,
          "velocity": 0
        },
        {
          "time": 13920,
          "status": 144,
          "type": "MIDI::NoteOn",
          "channel": 0,
          "note": 48,
          "velocity": 77
        },
        {
          "time": 13968,
          "status": 128,
          "type": "MIDI::NoteOff",
          "channel": 0,
          "note": 48,
          "velocity": 0
        },
        {
          "time": 13968,
          "status": 144,
          "type": "MIDI::NoteOn",
          "channel": 0,
          "note": 48,
          "velocity": 94
        },
        {
          "time": 14099,
          "status": 128,
          "type": "MIDI::NoteOff",
          "channel": 0,
          "note": 48,
          "velocity": 0
        },
        {
          "time": 14112,
          "status": 144,
          "type": "MIDI::NoteOn",
          "channel": 0,
          "note": 48,
          "velocity": 101
        },
        {
          "time": 14208,
          "status": 128,
          "type": "MIDI::NoteOff",
          "channel": 0,
          "note": 48,
          "velocity": 64
        },
        {
          "time": 14208,
          "status": 144,
          "type": "MIDI::NoteOn",
          "channel": 0,
          "note": 48,
          "velocity": 90
        },
        {
          "time": 14256,
          "status": 128,
          "type": "MIDI::NoteOff",
          "channel": 0,
          "note": 48,
          "velocity": 0
        },
        {
          "time": 14256,
          "status": 144,
          "type": "MIDI::NoteOn",
          "channel": 0,
          "note": 48,
          "velocity": 80
        },
        {
          "time": 14304,
          "status": 128,
          "type": "MIDI::NoteOff",
          "channel": 0,
          "note": 48,
          "velocity": 0
        },
        {
          "time": 14304,
          "status": 144,
          "type": "MIDI::NoteOn",
          "channel": 0,
          "note": 48,
          "velocity": 88
        },
        {
          "time": 14335,
          "status": 128,
          "type": "MIDI::NoteOff",
          "channel": 0,
          "note": 48,
          "velocity": 0
        },
        {
          "time": 14352,
          "status": 144,
          "type": "MIDI::NoteOn",
          "channel": 0,
          "note": 48,
          "velocity": 84
        },
        {
          "time": 14400,
          "status": 128,
          "type": "MIDI::NoteOff",
          "channel": 0,
          "note": 48,
          "velocity": 0
        },
        {
          "time": 14400,
          "status": 144,
          "type": "MIDI::NoteOn",
          "channel": 0,
          "note": 48,
          "velocity": 76
        },
        {
          "time": 14448,
          "status": 128,
          "type": "MIDI::NoteOff",
          "channel": 0,
          "note": 48,
          "velocity": 0
        },
        {
          "time": 14448,
          "status": 144,
          "type": "MIDI::NoteOn",
          "channel": 0,
          "note": 48,
          "velocity": 91
        },
        {
          "time": 14511,
          "status": 128,
          "type": "MIDI::NoteOff",
          "channel": 0,
          "note": 48,
          "velocity": 0
        },
        {
          "time": 14592,
          "status": 144,
          "type": "MIDI::NoteOn",
          "channel": 0,
          "note": 48,
          "velocity": 101
        },
        {
          "time": 14640,
          "status": 128,
          "type": "MIDI::NoteOff",
          "channel": 0,
          "note": 48,
          "velocity": 64
        },
        {
          "time": 14640,
          "status": 144,
          "type": "MIDI::NoteOn",
          "channel": 0,
          "note": 48,
          "velocity": 93
        },
        {
          "time": 14725,
          "status": 128,
          "type": "MIDI::NoteOff",
          "channel": 0,
          "note": 48,
          "velocity": 0
        },
        {
          "time": 14736,
          "status": 144,
          "type": "MIDI::NoteOn",
          "channel": 0,
          "note": 48,
          "velocity": 80
        },
        {
          "time": 14834,
          "status": 128,
          "type": "MIDI::NoteOff",
          "channel": 0,
          "note": 48,
          "velocity": 0
        },
        {
          "time": 14928,
          "status": 144,
          "type": "MIDI::NoteOn",
          "channel": 0,
          "note": 48,
          "velocity": 80
        },
        {
          "time": 15022,
          "status": 128,
          "type": "MIDI::NoteOff",
          "channel": 0,
          "note": 48,
          "velocity": 0
        },
        {
          "time": 15024,
          "status": 144,
          "type": "MIDI::NoteOn",
          "channel": 0,
          "note": 48,
          "velocity": 87
        },
        {
          "time": 15127,
          "status": 128,
          "type": "MIDI::NoteOff",
          "channel": 0,
          "note": 48,
          "velocity": 0
        },
        {
          "time": 15360,
          "status": 144,
          "type": "MIDI::NoteOn",
          "channel": 0,
          "note": 48,
          "velocity": 101
        },
        {
          "time": 15408,
          "status": 128,
          "type": "MIDI::NoteOff",
          "channel": 0,
          "note": 48,
          "velocity": 64
        },
        {
          "time": 15408,
          "status": 144,
          "type": "MIDI::NoteOn",
          "channel": 0,
          "note": 48,
          "velocity": 101
        },
        {
          "time": 15456,
          "status": 128,
          "type": "MIDI::NoteOff",
          "channel": 0,
          "note": 48,
          "velocity": 64
        },
        {
          "time": 15504,
          "status": 144,
          "type": "MIDI::NoteOn",
          "channel": 0,
          "note": 48,
          "velocity": 101
        },
        {
          "time": 15552,
          "status": 128,
          "type": "MIDI::NoteOff",
          "channel": 0,
          "note": 48,
          "velocity": 64
        },
        {
          "time": 15552,
          "status": 144,
          "type": "MIDI::NoteOn",
          "channel": 0,
          "note": 48,
          "velocity": 101
        },
        {
          "time": 15600,
          "status": 128,
          "type": "MIDI::NoteOff",
          "channel": 0,
          "note": 48,
          "velocity": 64
        },
        {
          "time": 15888,
          "status": 144,
          "type": "MIDI::NoteOn",
          "channel": 0,
          "note": 48,
          "velocity": 101
        },
        {
          "time": 15936,
          "status": 128,
          "type": "MIDI::NoteOff",
          "channel": 0,
          "note": 48,
          "velocity": 64
        },
        {
          "time": 16032,
          "status": 144,
          "type": "MIDI::NoteOn",
          "channel": 0,
          "note": 48,
          "velocity": 101
        },
        {
          "time": 16080,
          "status": 128,
          "type": "MIDI::NoteOff",
          "channel": 0,
          "note": 48,
          "velocity": 64
        },
        {
          "time": 16128,
          "status": 144,
          "type": "MIDI::NoteOn",
          "channel": 0,
          "note": 48,
          "velocity": 45
        },
        {
          "time": 16512,
          "status": 128,
          "type": "MIDI::NoteOff",
          "channel": 0,
          "note": 48,
          "velocity": 0
        },
        {
          "time": 16512,
          "status": 144,
          "type": "MIDI::NoteOn",
          "channel": 0,
          "note": 48,
          "velocity": 73
        },
        {
          "time": 16803,
          "status": 128,
          "type": "MIDI::NoteOff",
          "channel": 0,
          "note": 48,
          "velocity": 0
        },
        {
          "time": 16896,
          "status": 144,
          "type": "MIDI::NoteOn",
          "channel": 0,
          "note": 48,
          "velocity": 61
        },
        {
          "time": 17592,
          "status": 128,
          "type": "MIDI::NoteOff",
          "channel": 0,
          "note": 48,
          "velocity": 0
        },
        {
          "time": 17664,
          "status": 144,
          "type": "MIDI::NoteOn",
          "channel": 0,
          "note": 48,
          "velocity": 100
        },
        {
          "time": 17760,
          "status": 128,
          "type": "MIDI::NoteOff",
          "channel": 0,
          "note": 48,
          "velocity": 64
        },
        {
          "time": 18432,
          "status": 144,
          "type": "MIDI::NoteOn",
          "channel": 0,
          "note": 48,
          "velocity": 100
        },
        {
          "time": 18528,
          "status": 128,
          "type": "MIDI::NoteOff",
          "channel": 0,
          "note": 48,
          "velocity": 64
        },
        {
          "time": 18816,
          "status": 144,
          "type": "MIDI::NoteOn",
          "channel": 0,
          "note": 48,
          "velocity": 100
        },
        {
          "time": 18912,
          "status": 128,
          "type": "MIDI::NoteOff",
          "channel": 0,
          "note": 48,
          "velocity": 64
        },
        {
          "time": 19200,
          "status": 144,
          "type": "MIDI::NoteOn",
          "channel": 0,
          "note": 48,
          "velocity": 100
        },
        {
          "time": 19296,
          "status": 128,
          "type": "MIDI::NoteOff",
          "channel": 0,
          "note": 48,
          "velocity": 64
        },
        {
          "time": 19392,
          "status": 144,
          "type": "MIDI::NoteOn",
          "channel": 0,
          "note": 48,
          "velocity": 100
        },
        {
          "time": 19488,
          "status": 128,
          "type": "MIDI::NoteOff",
          "channel": 0,
          "note": 48,
          "velocity": 64
        },
        {
          "time": 19584,
          "status": 144,
          "type": "MIDI::NoteOn",
          "channel": 0,
          "note": 48,
          "velocity": 100
        },
        {
          "time": 19680,
          "status": 128,
          "type": "MIDI::NoteOff",
          "channel": 0,
          "note": 48,
          "velocity": 64
        },
        {
          "time": 19968,
          "status": 144,
          "type": "MIDI::NoteOn",
          "channel": 0,
          "note": 48,
          "velocity": 100
        },
        {
          "time": 20064,
          "status": 128,
          "type": "MIDI::NoteOff",
          "channel": 0,
          "note": 48,
          "velocity": 64
        },
        {
          "time": 20736,
          "status": 144,
          "type": "MIDI::NoteOn",
          "channel": 0,
          "note": 48,
          "velocity": 100
        },
        {
          "time": 20832,
          "status": 128,
          "type": "MIDI::NoteOff",
          "channel": 0,
          "note": 48,
          "velocity": 64
        },
        {
          "time": 21504,
          "status": 144,
          "type": "MIDI::NoteOn",
          "channel": 0,
          "note": 48,
          "velocity": 100
        },
        {
          "time": 21600,
          "status": 128,
          "type": "MIDI::NoteOff",
          "channel": 0,
          "note": 48,
          "velocity": 64
        },
        {
          "time": 21888,
          "status": 144,
          "type": "MIDI::NoteOn",
          "channel": 0,
          "note": 48,
          "velocity": 100
        },
        {
          "time": 21984,
          "status": 128,
          "type": "MIDI::NoteOff",
          "channel": 0,
          "note": 48,
          "velocity": 64
        },
        {
          "time": 22080,
          "status": 144,
          "type": "MIDI::NoteOn",
          "channel": 0,
          "note": 48,
          "velocity": 100
        },
        {
          "time": 22176,
          "status": 128,
          "type": "MIDI::NoteOff",
          "channel": 0,
          "note": 48,
          "velocity": 64
        },
        {
          "time": 22272,
          "status": 144,
          "type": "MIDI::NoteOn",
          "channel": 0,
          "note": 48,
          "velocity": 100
        },
        {
          "time": 22368,
          "status": 128,
          "type": "MIDI::NoteOff",
          "channel": 0,
          "note": 48,
          "velocity": 64
        },
        {
          "time": 22464,
          "status": 144,
          "type": "MIDI::NoteOn",
          "channel": 0,
          "note": 48,
          "velocity": 100
        },
        {
          "time": 22512,
          "status": 128,
          "type": "MIDI::NoteOff",
          "channel": 0,
          "note": 48,
          "velocity": 64
        },
        {
          "time": 22512,
          "status": 144,
          "type": "MIDI::NoteOn",
          "channel": 0,
          "note": 48,
          "velocity": 101
        },
        {
          "time": 22560,
          "status": 128,
          "type": "MIDI::NoteOff",
          "channel": 0,
          "note": 48,
          "velocity": 64
        },
        {
          "time": 22560,
          "status": 144,
          "type": "MIDI::NoteOn",
          "channel": 0,
          "note": 48,
          "velocity": 101
        },
        {
          "time": 22608,
          "status": 128,
          "type": "MIDI::NoteOff",
          "channel": 0,
          "note": 48,
          "velocity": 64
        }
      ]
    }
  ]
}